<?xml version="1.0" encoding="utf-8"?>
<!-- Generator: Adobe Illustrator 21.0.2, SVG Export Plug-In . SVG Version: 6.00 Build 0)  -->
<svg version="1.1" id="Layer_1" xmlns="http://www.w3.org/2000/svg" xmlns:xlink="http://www.w3.org/1999/xlink" x="0px" y="0px"
	 viewBox="0 0 61.1 100" style="enable-background:new 0 0 61.1 100;" xml:space="preserve">
<style type="text/css">
	.st0{fill:#FFFFFF;}
	.st1{fill:#E2DED5;}
	.st2{fill:#3ABADB;}
</style>
<g>
	<path class="st0" d="M30.6,0.5C13.7,0.5,0,14.1,0,31c0,8.8,3.7,16.8,9.7,22.4l1.4,16.5l12.5,15.3v15.3h13.9V85.2L50,69.9l1.4-16.5
		c6-5.6,9.7-13.5,9.7-22.4C61.1,14.1,47.4,0.5,30.6,0.5z M31.9,31v-2.8h4.2l-5.6-9.7L25,28.2h4.2V31H6.9c0-13,10.6-23.6,23.6-23.6
		c13,0,23.6,10.6,23.6,23.6H31.9z"/>
</g>
<circle class="st1" cx="39.6" cy="49.8" r="5.6"/>
<rect x="15.3" y="38" class="st1" width="8.3" height="15.3"/>
<rect x="18.4" y="39.4" width="2.1" height="12.5" class="st2"/>
</svg>
